<?xml version="1.0" encoding="UTF-8"?>
<svg xmlns="http://www.w3.org/2000/svg" width="382.3" height="133.28" viewBox="0 0 382.3 133.28">
  <defs>
    <style>
      .cls-1 {
        fill: #000;
      }

      .cls-1, .cls-2, .cls-3 {
        stroke-width: 0px;
      }

      .cls-2 {
        fill: #0d0d0d;
      }

      .cls-3 {
        fill: #fff;
      }
    </style>
  </defs>
  <g id="Layer_2" data-name="Layer 2">
    <rect class="cls-1" width="382.3" height="133.28" rx="12" ry="12"/>
  </g>
  <g id="Layer_1" data-name="Layer 1">
    <polygon class="cls-3" points="268.35 34.29 268.35 98.63 227.22 83.31 224.14 96.93 214.24 105.1 151.76 105.1 115.24 102.72 111.28 74.12 112.82 37.63 125.36 29.18 196.42 29.18 218.86 32.71 226.56 47.57 227.88 51.31 268.35 34.29"/>
    <g id="Layer_2-2" data-name="Layer 2">
      <path class="cls-2" d="M109.33,33.2c5.03-6.83,13.92-8.53,25.98-7.44,21.94,1.99,44.12,1.75,66.1.08,20.79-1.58,29.09,2.73,29.57,16.46.01.54.12,1.08.25,2.12,4.21-2.08,8.02-3.94,11.81-5.83,7.89-3.92,15.79-7.83,23.66-11.79,3.1-1.56,5.74-1.52,7.9,1.02v77.31c-2.65,2.45-5.45,2.32-8.76.63-10.09-5.15-20.31-10.17-30.49-15.23-1.21-.6-2.48-1.14-4.38-2,0,1.78.01,3.07,0,4.35-.15,8.39-7.43,14.43-18.29,14.49-29.04.14-58.09.14-87.13,0-8.33-.04-13.87-3.32-16.91-8.88-.63-1.16-.92-2.41-.92-3.67v-56.8c0-1.68.54-3.34,1.62-4.81h0ZM169.23,98.89c14.21,0,28.09,1.43,42.3,1.39,8.39-.03,11.4-3.84,9.74-11.74-3.05-14.52-3.75-29.33-.15-43.78,2.4-9.63-2.63-13.6-15.34-11.51-23.39,3.83-47.53,4.13-70.9.23-14.83-2.47-19.79.86-17.64,11.37,2.89,14.09,2.76,28.42.05,42.53-1.77,9.24.75,12.9,10.11,12.91,13.84.02,28.01-1.4,41.84-1.4h0ZM265.21,92.9v-53.3c0-1.57-2.31-2.51-4.04-1.65-9.84,4.89-19.34,9.6-28.76,14.41-.87.44-1.37,1.76-1.39,2.68-.11,7.63-.11,15.27,0,22.9,0,.92.51,2.23,1.39,2.67,9.25,4.72,18.58,9.35,28.22,14.15,1.97.97,4.57-.09,4.57-1.86h.01Z"/>
    </g>
  </g>
</svg>