<?xml version="1.0" encoding="UTF-8"?>
<svg id="Layer_2" data-name="Layer 2" xmlns="http://www.w3.org/2000/svg" width="128.72" height="126.11" viewBox="0 0 128.72 126.11">
  <defs>
    <style>
      .cls-1, .cls-2 {
        fill: #9b9b9b;
        stroke-width: 0px;
      }

      .cls-2 {
        opacity: .3;
      }
    </style>
  </defs>
  <polygon class="cls-2" points="99.02 42.7 82.94 41.81 78.72 28.15 105.79 9.89 99.02 42.7"/>
  <polygon class="cls-2" points="106.92 70.15 121.87 88.13 100.3 90.83 95.83 76.15 106.92 70.15"/>
  <polygon class="cls-2" points="74.77 106.66 65.39 99.26 55.23 105.89 66.47 122.49 74.77 106.66"/>
  <polygon class="cls-2" points="33.91 77.94 30.21 91.6 9.91 88.91 23.57 72.7 33.91 77.94"/>
  <polygon class="cls-2" points="44.64 40.79 29.32 40.79 24.85 12.96 50.13 28.28 44.64 40.79"/>
  <polygon class="cls-2" points="5.48 49.85 50.38 49.21 62.64 9.89 77.22 48.06 118.3 49.85 87.53 73.66 97.99 110.61 64.36 90.45 31.84 114.57 42.98 73.66 5.48 49.85"/>
  <path class="cls-1" d="M128.71,45.29l-49.16,1.12L63.29,0l-14.13,47.1L0,48.22l40.43,27.99-14.13,47.1,39.12-29.8,40.43,27.99-16.25-46.41,39.12-29.8h0ZM94.64,105.34l-29.51-20.43-28.55,21.75,10.31-34.38-29.51-20.43,35.88-.81,10.31-34.38,11.86,33.87,35.88-.81-28.55,21.75,11.86,33.87h.02Z"/>
  <path class="cls-1" d="M20.89,7.38l6.38,36.93h18.96l5.12-16.98L20.89,7.38ZM42.96,39.85h-12.83l-4.32-25,20.62,13.5-3.47,11.5Z"/>
  <path class="cls-1" d="M76.46,27.33l5.12,16.98h18.96l6.38-36.93s-30.46,19.95-30.46,19.95ZM97.68,39.85h-12.83l-3.47-11.5,20.62-13.5-4.32,25Z"/>
  <path class="cls-1" d="M106.46,67.67l-12.71,8.76,4.9,16.17,25.74-3.91-17.92-21.02h-.01ZM97.99,77.75l8.16-5.62,11.5,13.49-16.52,2.51s-3.14-10.38-3.14-10.38Z"/>
  <path class="cls-1" d="M23.4,69.2l-17.92,21.02,25.74,3.91,4.9-16.17-12.71-8.76h-.01ZM28.7,89.66l-16.52-2.51,11.5-13.49,8.16,5.62-3.14,10.38Z"/>
  <path class="cls-1" d="M65.49,96.98l-11.93,9.23,11.83,19.9,11.83-19.9-11.72-9.23h-.01ZM65.35,120.11l-7.71-12.98,7.78-6.02,7.65,6.02-7.71,12.98h-.01Z"/>
</svg>