<?xml version="1.0" encoding="UTF-8"?>
<svg id="Layer_1" data-name="Layer 1" xmlns="http://www.w3.org/2000/svg" width="26.09" height="25.44" viewBox="0 0 26.09 25.44">
  <defs>
    <style>
      .cls-1 {
        fill: #4e6cb3;
        stroke-width: 0px;
      }
    </style>
  </defs>
  <path class="cls-1" d="M4.19,1.26l1.4,7.78h4.14l1.11-3.58L4.19,1.26ZM9.01,8.08h-2.79l-.94-5.27,4.49,2.84-.76,2.42h0Z"/>
  <path class="cls-1" d="M15.26,5.45l1.11,3.58h4.14l1.4-7.78-6.65,4.21v-.02h0ZM19.88,8.08h-2.79l-.76-2.42,4.49-2.84-.94,5.27h0Z"/>
  <path class="cls-1" d="M20.97,13.49v-.02l-2.67,2,1.25,3.35,5.55-1.12s-4.13-4.21-4.13-4.21ZM19.25,15.7h-.02l1.72-1.27,2.65,2.71-3.57.72-.79-2.15h.01Z"/>
  <path class="cls-1" d="M4.75,13.49l-3.9,4.43,5.61.82,1.07-3.41-2.77-1.85h0v.02h-.01ZM5.9,17.81l-3.6-.53,2.51-2.84,1.79,1.18-.68,2.19h-.02Z"/>
  <path class="cls-1" d="M13.01,19.31l-2.6,1.94,2.57,4.19,2.57-4.19-2.55-1.94h.01ZM12.97,24.18l-1.68-2.74,1.7-1.26,1.68,1.26-1.68,2.74s-.02,0-.02,0Z"/>
  <path class="cls-1" d="M26.07,9.59l-9.96-.09L13.12,0l-3.16,9.45-9.96-.09,8.01,5.93-3.16,9.45,8.11-5.78,8.01,5.93-2.99-9.5,8.11-5.78-.02-.02ZM19.04,21.94l-6.11-4.53-6.2,4.42,2.42-7.21-6.11-4.53,7.61.07,2.42-7.21,2.29,7.26,7.61.07-6.2,4.42,2.29,7.26-.02-.02Z"/>
</svg>