<?xml version="1.0" encoding="UTF-8"?>
<svg xmlns="http://www.w3.org/2000/svg" viewBox="0 0 119.91 127">
  <defs>
    <style>
      .cls-1, .cls-2, .cls-3, .cls-4, .cls-5, .cls-6 {
        stroke: #000;
        stroke-miterlimit: 10;
      }

      .cls-1, .cls-2, .cls-4, .cls-5, .cls-6 {
        fill: none;
      }

      .cls-1, .cls-3 {
        stroke-width: 2px;
      }

      .cls-7 {
        stroke-width: 0px;
      }

      .cls-7, .cls-3 {
        fill: #000;
      }

      .cls-4 {
        stroke-width: 4px;
      }

      .cls-5 {
        stroke-width: 6px;
      }

      .cls-6 {
        stroke-width: 3px;
      }
    </style>
  </defs>
  <g id="Layer_2" data-name="Layer 2">
    <path class="cls-4" d="M116.74,53.48H7.45l.34,55.45s.15,16.07,13.6,16.07h79.79s15.56-1.51,15.56-16.09v-55.42Z"/>
    <line class="cls-6" x1="15.39" y1="60.33" x2="44.5" y2="60.33"/>
    <line class="cls-1" x1="15.52" y1="68.4" x2="33.71" y2="68.4"/>
    <circle class="cls-3" cx="108.84" cy="60.91" r="1.98"/>
    <circle class="cls-3" cx="108.84" cy="68.4" r="1.98"/>
    <path class="cls-6" d="M5.31,44.14h113.11v6.65c0,1.48-1.2,2.69-2.69,2.69H8c-1.48,0-2.69-1.2-2.69-2.69v-6.65h0Z"/>
    <path class="cls-6" d="M.8,16.71h113.11v13.54c0,1.48-1.2,2.69-2.69,2.69H3.48c-1.48,0-2.69-1.2-2.69-2.69v-13.54h0Z" transform="translate(119.41 32.17) rotate(163.34)"/>
    <circle class="cls-2" cx="12.28" cy="38.54" r="2.06"/>
    <circle class="cls-2" cx="12.8" cy="49.84" r="2.06"/>
    <circle class="cls-2" cx="21.97" cy="47.78" r="2.06"/>
    <polygon class="cls-7" points="14.05 37.02 14.63 38.37 16.09 37.6 15.94 34.66 14.92 33.55 14.5 33.55 14.05 37.02"/>
    <polygon class="cls-7" points="23.05 44.87 23.44 45.45 22.95 45.74 22.48 45.78 22.48 45.01 22.7 44.53 23.05 44.87"/>
    <polygon class="cls-5" points="90.59 90.04 50.62 110.66 49.98 70.38 90.59 90.04"/>
  </g>
  <g id="Layer_3" data-name="Layer 3">
    <path class="cls-2" d="M14.92,33.55s9.15,3.16,12.51,14c.39,1.25.6,2.56-.04,3.62-.55.9-1.51,1.28-2.89,1.66-3.06.84-5.57.98-9.36,1.06-3.96.09-4.8.02-5.7-.64-1.05-.76-1.46-1.78-2.17-3.62-.63-1.64-.76-2.6-1.45-7.06-.71-4.59-.84-5.28-.34-6.34.93-1.98,2.94-2.82,3.62-3.06.73-.26,2.53-.76,5.83.38Z"/>
    <path class="cls-7" d="M14.34,37.63v1.76l-1.23,1.04h-1.65l-1.12-1.21.26-1.59.8-.73,1.39-.19,2.06.51-.05-1.95-.03-1.34v-.44s-2.18-.54-2.18-.54l-3.68.47-2.38,1.32-1.36,3.34.39,2.91s.56,4.01.64,4.16,1.05,4.49,1.05,4.49l1.82,3.33,2.63.51.38-1.58-1.12-.92v-1.88l.84-1.07,2.13-.24.9,1.5-.33,1.68-1.07.94-.45,1.06,7.28-.35s5.48-.38,5.66-.26,1.46-1.18,1.46-1.18v-2.84l-1-3.53-3.75.09.96,1.79.43,1.12-.4,1.5s-2.36.26-2.46.26-1.09-1.18-1.09-1.18l.11-1.63,1.77-1.01.51.06.71.34-.84-1.31,1.79-1.44,1.18-1.24-3.35-4.21-4.34-3.03-2.48-1.26v2.56s-.81,1.44-.81,1.44Z"/>
    <polygon class="cls-7" points="35.87 22.71 47.19 19.32 61.2 32.07 50.81 35.6 35.87 22.71"/>
    <polygon class="cls-7" points="56.22 16.33 67.53 12.94 81.54 25.69 71.15 29.22 56.22 16.33"/>
    <polygon class="cls-7" points="76.98 10.41 88.29 7.02 102.3 19.77 91.91 23.31 76.98 10.41"/>
    <polygon class="cls-7" points="16.49 28.79 27.81 25.41 41.82 38.15 31.42 41.69 16.49 28.79"/>
  </g>
</svg>