<?xml version="1.0" encoding="UTF-8"?>
<svg id="Layer_1" data-name="Layer 1" xmlns="http://www.w3.org/2000/svg" width="25.97" height="27.78" viewBox="0 0 25.97 27.78">
  <defs>
    <style>
      .cls-1, .cls-2, .cls-3 {
        stroke: #4e6cb3;
        stroke-miterlimit: 10;
      }

      .cls-1, .cls-3 {
        fill: none;
      }

      .cls-2 {
        stroke-width: .25px;
      }

      .cls-2, .cls-4 {
        fill: #4e6cb3;
      }

      .cls-4 {
        stroke-width: 0px;
      }

      .cls-3 {
        stroke-width: .75px;
      }
    </style>
  </defs>
  <g id="Layer_3-2" data-name="Layer 3">
    <path class="cls-4" d="M3.3,6.99s2.2.41,2.73,3.05c.08.27.13.56,0,.79-.12.2-.33.28-.63.36-.67.18-1.21.21-2.04.23-.86.02-1.05,0-1.24-.14-.23-.17-.32-.39-.47-.79-.14-.36-.17-.57-.32-1.54-.15-1-.18-1.15-.07-1.38.2-.43.64-.61.79-.67.16-.06.55-.17,1.27.08h-.02Z"/>
    <polygon class="cls-4" points="7.86 5 10.33 4.26 13.38 7.03 11.11 7.8 7.86 5"/>
    <polygon class="cls-4" points="12.29 3.61 14.76 2.87 17.81 5.64 15.54 6.41 12.29 3.61"/>
    <polygon class="cls-4" points="16.81 2.32 19.28 1.58 22.33 4.36 20.07 5.13 16.81 2.32"/>
    <polygon class="cls-4" points="3.64 6.32 6.1 5.58 9.16 8.36 6.89 9.13 3.64 6.32"/>
  </g>
  <polygon class="cls-4" points="21.23 1.11 23.69 .38 24.36 1.85 24.48 3.92 21.23 1.11"/>
  <g id="Layer_2" data-name="Layer 2">
    <g id="Layer_2-2" data-name="Layer 2">
      <path class="cls-1" d="M25.38,11.7H1.67l.07,12.08s.03,3.5,2.96,3.5h17.38s3.39-.33,3.39-3.5v-12.07h-.09Z"/>
      <path class="cls-2" d="M1.2,9.66h24.64v1.45c0,.32-.26.59-.59.59H1.79c-.32,0-.59-.26-.59-.59v-1.45h0Z"/>
      <path class="cls-3" d="M24.91,3.86L1.37,10.82l-.97-2.96c-.09-.31.08-.64.39-.73L23.28.4c.31-.09.64.08.73.39l.85,2.83h0l.03.14.02.1Z"/>
      <polygon class="cls-1" points="19.78 19.66 11.07 24.15 10.93 15.38 19.78 19.66"/>
    </g>
  </g>
</svg>