<?xml version="1.0" encoding="UTF-8"?>
<svg id="Layer_1" data-name="Layer 1" xmlns="http://www.w3.org/2000/svg" viewBox="0 0 119.91 127">
  <defs>
    <style>
      .cls-1, .cls-2, .cls-3, .cls-4, .cls-5, .cls-6, .cls-7, .cls-8, .cls-9 {
        stroke: #9b9b9b;
        stroke-miterlimit: 10;
      }

      .cls-1, .cls-5 {
        stroke-width: 2px;
      }

      .cls-1, .cls-7 {
        fill: #fff;
      }

      .cls-2, .cls-6, .cls-8 {
        fill: #9b9b9b;
      }

      .cls-2, .cls-9 {
        stroke-width: 3px;
      }

      .cls-3 {
        stroke-width: 6px;
      }

      .cls-3, .cls-4, .cls-5, .cls-9 {
        fill: none;
      }

      .cls-4 {
        stroke-width: 4px;
      }

      .cls-6 {
        opacity: .3;
      }
    </style>
  </defs>
  <polygon class="cls-6" points="118.41 44.14 118.41 50.79 116.73 55.12 115.85 114.43 109.86 121.87 102.29 124.83 16.49 125 10.21 119.12 7.44 103.98 7.45 55.47 5.17 53.17 4.48 49.84 5.38 45.78 1.99 33.55 108.83 1.93 113.86 16.39 25.94 42.91 98.94 45.78 118.41 44.14"/>
  <g id="Layer_2" data-name="Layer 2">
    <path class="cls-4" d="M116.73,53.48H7.44l.34,55.45s.15,16.07,13.6,16.07h79.79s15.56-1.51,15.56-16.09v-55.42h0Z"/>
    <line class="cls-9" x1="15.38" y1="60.33" x2="44.49" y2="60.33"/>
    <line class="cls-5" x1="15.51" y1="68.4" x2="33.7" y2="68.4"/>
    <circle class="cls-1" cx="108.83" cy="60.91" r="1.98"/>
    <circle class="cls-1" cx="108.83" cy="68.4" r="1.98"/>
    <path class="cls-2" d="M5.3,44.14h113.11v6.65c0,1.48-1.2,2.69-2.69,2.69H7.99c-1.48,0-2.69-1.2-2.69-2.69v-6.65h0Z"/>
    <path class="cls-9" d="M113.85,16.39L5.49,48.82l-3.88-12.97c-.42-1.42.38-2.92,1.81-3.35L106.63,1.61c1.42-.42,2.92.38,3.35,1.81l3.88,12.97h0Z"/>
    <circle class="cls-7" cx="12.27" cy="38.54" r="2.06"/>
    <circle class="cls-7" cx="12.79" cy="49.84" r="2.06"/>
    <circle class="cls-7" cx="21.96" cy="47.78" r="2.06"/>
    <polygon class="cls-7" points="14.04 37.02 14.62 38.37 16.08 37.6 15.93 34.66 14.91 33.55 14.49 33.55 14.04 37.02"/>
    <polygon class="cls-7" points="23.04 44.87 23.43 45.45 22.94 45.74 22.47 45.78 22.47 45.01 22.69 44.53 23.04 44.87"/>
    <polygon class="cls-3" points="90.58 90.04 50.61 110.66 49.97 70.38 90.58 90.04"/>
  </g>
  <g id="Layer_3" data-name="Layer 3">
    <path class="cls-8" d="M14.91,33.55s10.11,1.9,12.51,14c.39,1.25.6,2.56-.04,3.62-.55.9-1.51,1.28-2.89,1.66-3.06.84-5.57.98-9.36,1.06-3.96.09-4.8.02-5.7-.64-1.05-.76-1.46-1.78-2.17-3.62-.63-1.64-.76-2.6-1.45-7.06-.71-4.59-.84-5.28-.34-6.34.93-1.98,2.94-2.82,3.62-3.06.73-.26,2.53-.76,5.83.38h-.01Z"/>
    <path class="cls-8" d="M14.55,37.32v1.76l-1.23,1.04h-1.65l-1.12-1.21.26-1.59.8-.73,1.39-.19,2.11,1.35-.1-2.79-.03-1.34v-.44l-2.18-.54-3.68.47-2.38,1.32-1.36,3.34.39,2.91s.56,4.01.64,4.16,1.05,4.49,1.05,4.49l1.82,3.33,2.63.51.38-1.58-1.12-.92v-1.88l.84-1.07,2.13-.24.9,1.5-.33,1.68-1.07.94-.45,1.06,7.28-.35s5.48-.38,5.66-.26,1.46-1.18,1.46-1.18v-2.84l-1-3.53-3.75.09.96,1.79.43,1.12-.4,1.5s-2.36.26-2.46.26-1.09-1.18-1.09-1.18l.11-1.63,1.77-1.01.51.06.71.34-.84-1.31,1.79-1.44,1.18-1.24-3.35-4.21-4.34-3.03-2.48-1.26v2.56l-.81,1.44s.02-.03.02-.03Z"/>
    <polygon class="cls-8" points="35.86 22.71 47.18 19.32 61.19 32.07 50.8 35.6 35.86 22.71"/>
    <polygon class="cls-8" points="56.21 16.33 67.52 12.94 81.53 25.69 71.14 29.22 56.21 16.33"/>
    <polygon class="cls-8" points="76.97 10.41 88.28 7.02 102.29 19.77 91.9 23.31 76.97 10.41"/>
    <polygon class="cls-8" points="16.48 28.79 27.8 25.41 41.81 38.15 31.41 41.69 16.48 28.79"/>
  </g>
</svg>