<?xml version="1.0" encoding="UTF-8"?>
<svg xmlns="http://www.w3.org/2000/svg" viewBox="0 0 196 196">
  <defs>
    <style>
      .cls-1 {
        fill: #0d0d0d;
      }

      .cls-1, .cls-2, .cls-3 {
        stroke-width: 0px;
      }

      .cls-2 {
        fill: #000;
      }

      .cls-4 {
        fill: none;
        stroke: #000;
        stroke-miterlimit: 10;
        stroke-width: 6px;
      }

      .cls-3 {
        fill: #0a0a0a;
      }
    </style>
  </defs>
  <g id="Layer_1" data-name="Layer 1">
    <circle class="cls-4" cx="98" cy="98" r="95"/>
    <polygon class="cls-3" points="41.13 69.55 41.13 129.81 47.6 135.6 119.43 135.6 125.04 129.81 125.04 116.87 136.79 119.6 159.09 134.57 160.62 64.22 126.06 82.49 125.21 68.19 116.19 60.87 83.26 62.57 53.89 60.87 43.48 20.87 74.7 5.88 114.56 4.44 139.51 12.53 166.91 32.61 189.61 72.77 195 99 190.4 120.15 182.12 142.19 169.63 160.4 149.48 177.85 125.59 188.93 95.6 193.81 63.66 186.6 37.81 171.5 19.97 152.21 11.02 136.25 5.72 116.7 3.85 97.99 5.89 69.38 12.7 59.17 22.23 44.19 36.63 27 40.5 22.37 52.19 60.02 43.48 64.22 41.13 69.55"/>
    <path class="cls-2" d="M47.21,17.7s11.87,42.28,11.49,42.28-10.85.64-10.85.64l-11.22-35.13,10.58-7.78Z"/>
  </g>
  <g id="Layer_2" data-name="Layer 2">
    <path class="cls-1" d="M37.86,64.72c3.81-6.83,10.55-8.53,19.69-7.44,16.63,1.99,33.44,1.75,50.1.08,15.76-1.58,22.05,2.73,22.41,16.46.01.54.09,1.08.19,2.12,3.19-2.08,6.08-3.94,8.95-5.83,5.98-3.92,11.97-7.83,17.93-11.79,2.35-1.56,4.35-1.52,5.99,1.02v77.31c-2.01,2.45-4.13,2.32-6.64.63-7.65-5.15-15.39-10.17-23.11-15.23-.92-.6-1.88-1.14-3.32-2,0,1.78.01,3.07,0,4.35-.11,8.39-5.63,14.43-13.86,14.49-22.01.14-44.03.14-66.04,0-6.31-.04-10.51-3.32-12.82-8.88-.48-1.16-.7-2.41-.7-3.67,0-8.67,0-47.21,0-56.8,0-1.68.41-3.34,1.23-4.81ZM83.26,130.41c10.77,0,21.29,1.43,32.06,1.39,6.36-.03,8.64-3.84,7.38-11.74-2.31-14.52-2.84-29.33-.11-43.78,1.82-9.63-1.99-13.6-11.63-11.51-17.73,3.83-36.02,4.13-53.74.23-11.24-2.47-15,.86-13.37,11.37,2.19,14.09,2.09,28.42.04,42.53-1.34,9.24.57,12.9,7.66,12.91,10.49.02,21.23-1.4,31.71-1.4ZM156.01,124.42v-53.3c0-1.57-1.75-2.51-3.06-1.65-7.46,4.89-14.66,9.6-21.8,14.41-.66.44-1.04,1.76-1.05,2.68-.08,7.63-.08,15.27,0,22.9,0,.92.39,2.23,1.05,2.67,7.01,4.72,14.08,9.35,21.39,14.15,1.49.97,3.46-.09,3.46-1.86Z"/>
  </g>
</svg>